# xmcd
#
# Track frame offsets:
#	150
#	22975
#	46560
#
# Disc length: 963 seconds
#
# Revision: 0
# Processed by: cddbd v1.5.2PL0 Copyright (c) Steve Scherf et al.
# Submitted via: audiograbber 1.83.01
#
DISCID=1303c103
DTITLE=Billy Crawford - Mary Lopez [CD Single)
DYEAR=1999
DGENRE=Pop
TTITLE0=Mary Lopez (Soul Inside Radio Mix)
TTITLE1=Supernatural (Ceri Evans Funky Lick)
TTITLE2=Urgently In Love (Jam and Delgado Extended Mix)
EXTD=
EXTT0=
EXTT1=
EXTT2=
PLAYORDER=
